<svg xmlns="http://www.w3.org/2000/svg" viewBox="0 0 78 55"><defs><style>.cls-1{isolation:isolate;}.cls-2{fill:#1c02fd;}.cls-3{fill:aqua;}</style></defs><g id="TEN_POINT_ONE" data-name="TEN POINT ONE"><circle cx="39" cy="27.5" r="25.71"/><path class="cls-2" d="M44.85,14.5l0-5.21c0-1.35-2.55-1.2-2.77-1.25H26.39c-1.87,0-1.74,1.55-1.74,1.55V14.5h7.44l5.3,0"/><polygon class="cls-2" points="53.34 15.94 46.81 15.94 46.81 42.18 53.34 46.97 53.34 15.94"/><polygon class="cls-3" points="46.8 8.03 46.8 14.5 53.34 14.5 53.35 8.03 46.8 8.03"/><path class="cls-2" d="M44.85,14.5H39.61v-.65H38.26v.64h-.61a.75.75,0,0,1,.61.58v.81l0,1.15V36.34l6.55,5,0-14.14V14.5Z"/></g></svg>